<?xml version="1.0" encoding="utf-8"?>
<!-- Generator: Adobe Illustrator 23.0.0, SVG Export Plug-In . SVG Version: 6.00 Build 0)  -->
<svg version="1.1" id="Layer_1" xmlns="http://www.w3.org/2000/svg" xmlns:xlink="http://www.w3.org/1999/xlink" x="0px" y="0px"
	 viewBox="0 0 489.9 500" style="enable-background:new 0 0 489.9 500;" xml:space="preserve">
<style type="text/css">
	.st0{fill:#4D4D4D;}
	.st1{fill:#42A2DA;}
</style>
<g>
	<g>
		<g>
			<g>
				<path class="st0" d="M347.9,126.7c7.4,5,9.8,6.8,15.5,11.5c6.1,5.2,12,10.9,17.4,16.7c2.3,2.6,4.6,5.1,6.8,7.8
					c1,1.2,1.9,2.4,2.9,3.6c-2.3-2.9,1.4,2,1.5,2c4.7,6.5,9.1,13.4,13,20.6c1.8,3.3,3.6,6.6,5.1,10c0.8,1.7,1.5,3.5,2.3,5.1
					c2.6,5.6-1.2-3.3,1,2.4c2.7,7.2,5.2,14.3,7.2,21.7s3.6,15.1,4.6,22.8c-0.5-3.8,0.3,2.6,0.3,2.7c0.3,1.9,0.4,4,0.5,5.9
					c0.3,4,0.4,7.9,0.5,11.9c0.1,7.4-0.1,14.7-0.8,22.1c-0.3,3.6-0.6,7.2-1,10.7c0,0.5-0.9,6.3-0.3,1.9c-0.4,2.3-0.6,4.6-1.2,6.9
					c-2.3,13.4-5.8,26.7-10.5,39.5c-0.6,1.5-1.2,3.1-1.8,4.6c-0.3,0.5-2.4,5.6-0.6,1.5c-1.2,2.4-2.2,5-3.5,7.4
					c-3.1,6.3-6.5,12.4-10.2,18.3c-1.7,2.7-3.5,5.4-5.4,7.9c-0.4,0.5-3.6,4.7-0.8,1.2c-1,1.3-1.9,2.4-2.9,3.7
					c-4,4.9-8.3,9.5-12.9,13.8c-2.7,2.6-5.4,5-8.3,7.3c-0.5,0.4-4.7,3.6-1,0.9c-1.7,1.3-3.5,2.6-5.1,3.7c-5.8,4-11.8,7.5-17.9,10.7
					c-1.4,0.8-2.9,1.4-4.3,2.2c-0.6,0.4-7,3.1-2.9,1.4c-3.6,1.5-7.3,2.8-11,4.1c-7.7,2.6-15.6,4.5-23.5,6
					c-10.2,1.9-16,14.2-13.4,23.6c2.9,10.7,13.4,15.3,23.6,13.4c60.1-11.1,109.5-51.9,133.6-107.8c26.7-62.1,28.3-135.5-1.2-197
					c-16.7-35.2-43.7-64.7-76.1-86.2c-8.6-5.8-21.2-1.7-26.2,6.9C335.5,109.8,339.3,121,347.9,126.7L347.9,126.7z"/>
			</g>
		</g>
		<g>
			<g>
				<path class="st0" d="M286.2,95.5c0,41.7,0,83.3,0,125.1c0,66.3,0,132.7,0,199.2c0,15.1,0,30.3,0,45.4c0,10,8.8,19.7,19.2,19.2
					c10.4-0.5,19.2-8.4,19.2-19.2c0-41.7,0-83.3,0-125.1c0-66.3,0-132.7,0-199.2c0-15.1,0-30.3,0-45.4c0-10-8.8-19.7-19.2-19.2
					C294.9,76.9,286.2,84.8,286.2,95.5L286.2,95.5z"/>
			</g>
		</g>
		<g>
			<g>
				<path class="st0" d="M348,226.4c0,62.5,0,124.9,0,187.4c0,8.8,0,17.5,0,26.3c0,10,8.8,19.7,19.2,19.2
					c10.4-0.5,19.2-8.4,19.2-19.2c0-62.5,0-124.9,0-187.4c0-8.8,0-17.5,0-26.3c0-10-8.8-19.7-19.2-19.2
					C356.9,207.8,348,215.7,348,226.4L348,226.4z"/>
			</g>
		</g>
	</g>
	<g>
		<g>
			<g>
				<path class="st1" d="M246.4,446.8c-7.7,0-15.3-0.5-23-1.4c-0.8-0.1-3.7-0.5-0.1,0c-0.9-0.1-1.7-0.3-2.6-0.4
					c-1.7-0.3-3.5-0.5-5.1-0.9c-4-0.8-7.8-1.5-11.8-2.6c-7.2-1.8-14.1-4-21-6.6c-0.8-0.3-4.9-1.9-3.2-1.3c2,0.9-0.5-0.3-0.8-0.4
					c-1-0.5-2-0.9-3.1-1.4c-3.3-1.5-6.5-3.1-9.7-4.9c-6.5-3.5-12.9-7.4-19-11.6c-1.4-0.9-2.7-1.9-4-2.9c-1-0.8-4-3.1-1.4-1
					c-2.9-2.4-6-4.9-8.8-7.4c-5.4-4.7-10.4-9.8-15.1-15.1c-2.4-2.7-4.6-5.4-6.9-8.2c-1.4-1.7,0.3,0.4,0.5,0.6
					c-0.5-0.6-1-1.3-1.5-1.9c-1.3-1.8-2.6-3.6-3.8-5.4c-4.1-5.9-7.8-12-11.2-18.4c-1.7-3.2-3.3-6.4-4.9-9.7c-0.8-1.5-1.4-3.1-2-4.6
					c-0.1-0.3-1.2-2.8-0.4-0.8c0.8,2-0.5-1.3-0.6-1.7c-5.5-14.2-9.3-28.8-11.6-43.7c-0.5-3.7,0.1,1.9-0.3-1.8
					c-0.1-1.8-0.4-3.5-0.5-5.2c-0.4-4.1-0.6-8.3-0.6-12.4c-0.3-8.4,0.1-17,0.9-25.4c0.1-1.3,0.3-2.7,0.4-4c0,0.4-0.4,2.4,0,0.3
					c0.3-1.9,0.6-3.8,0.9-5.8c0.8-4.5,1.8-8.9,2.8-13.3c2-8.1,4.6-16,7.7-23.8c0.4-0.9,0.6-1.8,1-2.7c-0.8,1.9-0.1,0.3,0.3-0.6
					c1-2.3,2-4.6,3.2-6.9c2-4.2,4.3-8.4,6.8-12.5c2.2-3.8,4.6-7.5,7-11.1c1.4-2,2.8-4.1,4.3-6.1c0.5-0.8,1.2-1.5,1.7-2.3
					c-1.3,1.7-0.1,0.3,0.5-0.5c6-7.3,12.3-14.2,19.2-20.6c3.2-2.9,6.5-5.8,10-8.6c0,0,2.4-1.9,1-0.8c-1.5,1.2,2.2-1.7,2.6-1.9
					c2-1.5,4.1-2.9,6.1-4.3c8.6-5.9,12.4-16.9,6.9-26.2c-5-8.4-17.6-12.8-26.2-6.9C67.3,135,29.7,209.3,35.7,286.4
					C41,354.6,77.4,417.7,135.8,454c33,20.5,71.5,30.8,110.2,31.1c10,0,19.7-8.8,19.2-19.2C265.2,455.6,257.1,446.9,246.4,446.8
					L246.4,446.8z"/>
			</g>
		</g>
		<g>
			<g>
				<path class="st1" d="M228,34.2c0,48.8,0,97.5,0,146.4c0,77.2,0,154.3,0,231.5c0,17.8,0,35.4,0,53.2c0,10,8.8,19.7,19.2,19.2
					c10.4-0.5,19.2-8.4,19.2-19.2c0-48.8,0-97.5,0-146.4c0-77.2,0-154.3,0-231.5c0-17.8,0-35.4,0-53.2c0-10-8.8-19.7-19.2-19.2
					C236.8,15.5,228,23.4,228,34.2L228,34.2z"/>
			</g>
		</g>
		<g>
			<g>
				<path class="st1" d="M175.1,90.9c-0.1,39.5-0.3,79-0.4,118.5c-0.3,63-0.5,126-0.6,189.1c0,14.6-0.1,29.1-0.1,43.6
					c0,10,8.8,19.7,19.2,19.2c10.5-0.5,19.2-8.4,19.2-19.2c0.1-39.5,0.3-79,0.4-118.5c0.3-63,0.5-126,0.6-189.1
					c0-14.6,0.1-29.1,0.1-43.6c0-10-8.8-19.7-19.2-19.2C183.9,72.3,175.2,80.2,175.1,90.9L175.1,90.9z"/>
			</g>
		</g>
		<g>
			<g>
				<path class="st1" d="M115.4,225c-0.8,58.5-1.5,117-2.3,175.5c-0.1,8.3-0.3,16.6-0.3,24.9c-0.1,10,8.9,19.7,19.2,19.2
					c10.5-0.5,19-8.4,19.2-19.2c0.8-58.5,1.5-117,2.3-175.5c0.1-8.3,0.3-16.6,0.3-24.9c0.1-10-8.9-19.7-19.2-19.2
					C124.1,206.4,115.5,214.3,115.4,225L115.4,225z"/>
			</g>
		</g>
	</g>
</g>
</svg>
